<?xml version="1.0" encoding="UTF-8" standalone="no"?>
<!DOCTYPE svg PUBLIC "-//W3C//DTD SVG 1.1//EN" "http://www.w3.org/Graphics/SVG/1.1/DTD/svg11.dtd">
<svg width="100%" height="100%" viewBox="0 0 800 800" version="1.1" xmlns="http://www.w3.org/2000/svg" xmlns:xlink="http://www.w3.org/1999/xlink" xml:space="preserve" xmlns:serif="http://www.serif.com/" style="fill-rule:evenodd;clip-rule:evenodd;stroke-linejoin:round;stroke-miterlimit:2;">
    <g id="Layer_2">
        <g id="invisible_box">
            <rect x="0" y="0" width="800" height="800" style="fill:none;"/>
        </g>
        <g id="icons_Q2">
            <path d="M738.333,166.667C728.251,156.287 714.468,150.294 700,150L191.667,150L185,93.333C181.656,68.468 160.088,49.776 135,50L83.333,50C65.047,50 50,65.047 50,83.333C50,101.619 65.047,116.667 83.333,116.667L120,116.667L173.333,565C143.315,582.726 124.884,615.139 125,650C125,704.858 170.142,750 225,750C267.244,749.34 305.013,722.835 320,683.333L496.667,683.333C511.653,722.835 549.422,749.34 591.667,750C646.525,750 691.667,704.858 691.667,650C691.667,595.142 646.525,550 591.667,550C549.422,550.66 511.653,577.165 496.667,616.667L320,616.667C307.161,581.438 275.544,556.274 238.333,551.667L235,516.667L656.667,516.667C681.133,516.068 701.744,497.59 705,473.333L750,210C751.862,194.596 747.678,179.054 738.333,166.667ZM625,650C625,668.286 609.953,683.333 591.667,683.333C573.381,683.333 558.333,668.286 558.333,650C558.333,631.714 573.381,616.667 591.667,616.667C609.953,616.667 625,631.714 625,650ZM258.333,650C258.333,668.286 243.286,683.333 225,683.333C206.714,683.333 191.667,668.286 191.667,650C191.667,631.714 206.714,616.667 225,616.667C243.286,616.667 258.333,631.714 258.333,650ZM641.667,450L226.667,450L200,216.667L680,216.667L641.667,450Z" style="fill:white;fill-rule:nonzero;"/>
        </g>
    </g>
</svg>
