<?xml version="1.0" encoding="UTF-8" standalone="no"?>
<!DOCTYPE svg PUBLIC "-//W3C//DTD SVG 1.1//EN" "http://www.w3.org/Graphics/SVG/1.1/DTD/svg11.dtd">
<svg width="100%" height="100%" viewBox="0 0 800 800" version="1.1" xmlns="http://www.w3.org/2000/svg" xmlns:xlink="http://www.w3.org/1999/xlink" xml:space="preserve" xmlns:serif="http://www.serif.com/" style="fill-rule:evenodd;clip-rule:evenodd;stroke-linejoin:round;stroke-miterlimit:2;">
    <g transform="matrix(-1,0,0,1,825,0)">
        <path d="M326.175,544.535L110.356,760.355C90.829,779.88 59.171,779.88 39.645,760.355C20.119,740.83 20.119,709.17 39.645,689.645L255.463,473.825C220.54,424.785 200,364.79 200,300C200,134.315 334.315,0 500,0C665.685,0 800,134.315 800,300C800,465.685 665.685,600 500,600C435.21,600 375.215,579.46 326.175,544.535ZM500,500C610.455,500 700,410.455 700,300C700,189.543 610.455,100 500,100C389.545,100 300,189.543 300,300C300,410.455 389.545,500 500,500Z" style="fill:rgb(117,140,163);"/>
    </g>
</svg>
